<svg width="25" height="25" viewBox="0 0 25 25" fill="currentColor" stroke="currentColor" xmlns="http://www.w3.org/2000/svg">
<path d="M12.4932 3.50005C12.5505 3.50005 12.6061 3.51945 12.6514 3.55473L23.0449 11.6553L22.7334 12.0499L21.8076 11.3282L21 10.6983V21C20.9993 21.265 20.8934 21.5187 20.7061 21.7061C20.5185 21.8937 20.2643 21.9996 19.999 22H5.00098C4.73568 21.9995 4.48154 21.8937 4.29395 21.7061C4.12975 21.5419 4.028 21.3267 4.00488 21.0977L4 20.9991V10.6915L3.19238 11.3213L2.26562 12.043L1.9541 11.6495L12.335 3.55473C12.3802 3.51943 12.4358 3.50006 12.4932 3.50005ZM10.5 21.5H14.5V14.5H10.5V21.5ZM20.5 10.3096L20.3076 10.1602L12.8076 4.30962L12.5 4.06938L12.1924 4.30962L4.69238 10.1514L4.5 10.3018V21.5H10V15L10.0049 14.9014C10.0279 14.6726 10.1289 14.4571 10.293 14.293C10.457 14.129 10.6725 14.0279 10.9014 14.0049L11.001 14H13.999L14.0986 14.0049C14.3275 14.028 14.543 14.129 14.707 14.293C14.8711 14.4571 14.9721 14.6726 14.9951 14.9014L15 15.001V21.5H20.5V10.3096Z"/>
</svg>
